<svg width="115" height="22" viewBox="0 0 115 22" fill="none" xmlns="http://www.w3.org/2000/svg">
<path d="M7.58157 1.92188L6.05814 5.03906L2.61282 5.53125C2.00345 5.625 1.76907 6.375 2.21439 6.82031L4.67532 9.23438L4.08939 12.6328C3.99564 13.2422 4.65189 13.7109 5.19095 13.4297L8.26126 11.8125L11.3081 13.4297C11.8472 13.7109 12.5034 13.2422 12.4097 12.6328L11.8238 9.23438L14.2847 6.82031C14.73 6.375 14.4956 5.625 13.8863 5.53125L10.4644 5.03906L8.91751 1.92188C8.6597 1.38281 7.86282 1.35938 7.58157 1.92188Z" fill="#FAAD13"/>
<path d="M30.0049 1.92188L28.4815 5.03906L25.0362 5.53125C24.4268 5.625 24.1924 6.375 24.6377 6.82031L27.0987 9.23438L26.5127 12.6328C26.419 13.2422 27.0752 13.7109 27.6143 13.4297L30.6846 11.8125L33.7315 13.4297C34.2705 13.7109 34.9268 13.2422 34.833 12.6328L34.2471 9.23438L36.708 6.82031C37.1534 6.375 36.919 5.625 36.3096 5.53125L32.8877 5.03906L31.3409 1.92188C31.083 1.38281 30.2862 1.35938 30.0049 1.92188Z" fill="#FAAD13"/>
<path d="M54.7886 1.92188L53.2652 5.03906L49.8199 5.53125C49.2105 5.625 48.9761 6.375 49.4214 6.82031L51.8824 9.23438L51.2964 12.6328C51.2027 13.2422 51.8589 13.7109 52.398 13.4297L55.4683 11.8125L58.5152 13.4297C59.0542 13.7109 59.7105 13.2422 59.6167 12.6328L59.0308 9.23438L61.4917 6.82031C61.9371 6.375 61.7027 5.625 61.0933 5.53125L57.6714 5.03906L56.1246 1.92188C55.8667 1.38281 55.0699 1.35938 54.7886 1.92188Z" fill="#FAAD13"/>
<path d="M79.5725 1.92188L78.0491 5.03906L74.6038 5.53125C73.9944 5.625 73.76 6.375 74.2054 6.82031L76.6663 9.23438L76.0804 12.6328C75.9866 13.2422 76.6429 13.7109 77.1819 13.4297L80.2522 11.8125L83.2991 13.4297C83.8382 13.7109 84.4944 13.2422 84.4007 12.6328L83.8147 9.23438L86.2757 6.82031C86.721 6.375 86.4866 5.625 85.8772 5.53125L82.4554 5.03906L80.9085 1.92188C80.6507 1.38281 79.8538 1.35938 79.5725 1.92188Z" fill="#FAAD13"/>
<path d="M103.176 1.92188L101.653 5.03906L98.2073 5.53125C97.5979 5.625 97.3636 6.375 97.8089 6.82031L100.27 9.23438L99.6839 12.6328C99.5901 13.2422 100.246 13.7109 100.785 13.4297L103.856 11.8125L106.903 13.4297C107.442 13.7109 108.098 13.2422 108.004 12.6328L107.418 9.23438L109.879 6.82031C110.325 6.375 110.09 5.625 109.481 5.53125L106.059 5.03906L104.512 1.92188C104.254 1.38281 103.457 1.35938 103.176 1.92188Z" fill="#FAAD13"/>
</svg>
