<svg width="24" height="23" viewBox="0 0 24 23" fill="none" xmlns="http://www.w3.org/2000/svg">
<path d="M11.8963 2.16602C17.0458 2.16602 21.2394 6.35756 21.2394 11.5145C21.2394 16.6607 17.0458 20.8522 11.8963 20.8522C6.74679 20.8522 2.55322 16.6607 2.55322 11.5145C2.55322 6.35756 6.74679 2.16602 11.8963 2.16602ZM10.8321 7.79982C10.6337 7.79982 10.4443 7.84489 10.264 7.93503C10.0385 8.06122 9.85815 8.25953 9.75895 8.4939C9.69582 8.65615 9.59662 9.14291 9.59662 9.15193C9.49741 9.68376 9.4433 10.5491 9.4433 11.5046C9.4433 12.4159 9.49741 13.2443 9.57858 13.7852C9.5876 13.7942 9.6868 14.3981 9.79502 14.6054C9.99343 14.984 10.3812 15.2184 10.7961 15.2184H10.8321C11.1027 15.2094 11.6709 14.975 11.6709 14.966C12.6268 14.5694 14.5117 13.3345 15.2692 12.5142L15.3233 12.4601C15.4225 12.3609 15.5488 12.2077 15.5758 12.1716C15.7201 11.9823 15.7923 11.748 15.7923 11.5145C15.7923 11.2522 15.7111 11.0088 15.5578 10.8105C15.5217 10.7745 15.3864 10.6212 15.2602 10.495C14.5207 9.70179 12.5907 8.40376 11.5807 8.00714C11.4274 7.94494 11.0396 7.80883 10.8321 7.79982Z" fill="black"/>
</svg>
